<svg id="Layer_1" data-name="Layer 1" xmlns="http://www.w3.org/2000/svg" xmlns:xlink="http://www.w3.org/1999/xlink" viewBox="0 0 1918.84 287.02"><defs><style>.cls-1{fill:#24005b;}.cls-2,.cls-4{opacity:0.5;}.cls-3,.cls-4{fill:#fff;}.cls-4{isolation:isolate;}.cls-5{fill:url(#radial-gradient);}.cls-6{fill:url(#radial-gradient-2);}.cls-7{fill:url(#radial-gradient-3);}.cls-8{fill:url(#radial-gradient-4);}.cls-9{fill:url(#radial-gradient-5);}.cls-10{fill:url(#radial-gradient-6);}.cls-11{fill:url(#radial-gradient-7);}.cls-12{fill:url(#radial-gradient-8);}.cls-13{fill:url(#radial-gradient-9);}.cls-14{fill:url(#radial-gradient-10);}.cls-15{fill:url(#radial-gradient-11);}.cls-16{fill:url(#radial-gradient-12);}</style><radialGradient id="radial-gradient" cx="-196.3" cy="-818.91" r="1" gradientTransform="matrix(-29.45, 0, 0, 29.45, -4042.14, 24240.09)" gradientUnits="userSpaceOnUse"><stop offset="0" stop-color="#fff" stop-opacity="0.3"/><stop offset="0.08" stop-color="#fff" stop-opacity="0.26"/><stop offset="0.43" stop-color="#fff" stop-opacity="0.12"/><stop offset="0.74" stop-color="#fff" stop-opacity="0.03"/><stop offset="1" stop-color="#fff" stop-opacity="0"/></radialGradient><radialGradient id="radial-gradient-2" cx="-225.83" cy="-824.6" r="1" gradientTransform="matrix(-29.45, 0, 0, 29.45, -4813.86, 24517.5)" xlink:href="#radial-gradient"/><radialGradient id="radial-gradient-3" cx="-232.1" cy="-775.96" r="1" gradientTransform="matrix(-16.37, 0, 0, 16.37, -2365.18, 12744.17)" xlink:href="#radial-gradient"/><radialGradient id="radial-gradient-4" cx="-258.72" cy="-749.52" r="1" gradientTransform="matrix(-13.05, 0, 0, 13.05, -1940.25, 9959.33)" xlink:href="#radial-gradient"/><radialGradient id="radial-gradient-5" cx="-228.98" cy="-755.69" r="1" gradientTransform="matrix(-13.05, 0, 0, 13.05, -1444.4, 10013.67)" xlink:href="#radial-gradient"/><radialGradient id="radial-gradient-6" cx="-219.54" cy="-749.82" r="1" gradientTransform="matrix(-13.05, 0, 0, 13.05, -1071.36, 9846.18)" xlink:href="#radial-gradient"/><radialGradient id="radial-gradient-7" cx="-166.09" cy="-818.91" r="1" gradientTransform="translate(5108.82 24240.09) scale(29.45 29.45)" xlink:href="#radial-gradient"/><radialGradient id="radial-gradient-8" cx="-195.62" cy="-824.6" r="1" gradientTransform="translate(5880.54 24517.5) scale(29.45 29.45)" xlink:href="#radial-gradient"/><radialGradient id="radial-gradient-9" cx="-177.76" cy="-775.96" r="1" gradientTransform="translate(3431.86 12744.17) scale(16.37 16.37)" xlink:href="#radial-gradient"/><radialGradient id="radial-gradient-10" cx="-190.53" cy="-749.52" r="1" gradientTransform="translate(3006.93 9959.33) scale(13.05 13.05)" xlink:href="#radial-gradient"/><radialGradient id="radial-gradient-11" cx="-160.8" cy="-755.69" r="1" gradientTransform="translate(2511.08 10013.67) scale(13.05 13.05)" xlink:href="#radial-gradient"/><radialGradient id="radial-gradient-12" cx="-151.35" cy="-749.82" r="1" gradientTransform="translate(2138.04 9846.18) scale(13.05 13.05)" xlink:href="#radial-gradient"/></defs><rect class="cls-1" x="0.16" width="1920.26" height="283.02"/><g class="cls-2"><path class="cls-3" d="M1585.37,123.91a10.14,10.14,0,1,1,10.14-10.14A10.14,10.14,0,0,1,1585.37,123.91Z"/><path class="cls-4" d="M1107.2,176.48a10.14,10.14,0,1,1,10.14-10.14A10.14,10.14,0,0,1,1107.2,176.48Z"/><path class="cls-3" d="M1348.42,240.55a10.74,10.74,0,1,1,10.74-10.73A10.73,10.73,0,0,1,1348.42,240.55Z"/><path class="cls-5" d="M1739,149.46A29.46,29.46,0,1,1,1768.47,120,29.46,29.46,0,0,1,1739,149.46Z"/><path class="cls-6" d="M1836.93,259.27a29.45,29.45,0,1,1,29.45-29.45A29.44,29.44,0,0,1,1836.93,259.27Z"/><path class="cls-7" d="M1434.37,56.49a16.37,16.37,0,1,1,16.37-16.37A16.37,16.37,0,0,1,1434.37,56.49Z"/><path class="cls-8" d="M1435.21,192.43a13,13,0,1,1,13-13A13,13,0,0,1,1435.21,192.43Z"/><path class="cls-9" d="M1543.09,166.34a13,13,0,1,1,13.05-13.05A13.05,13.05,0,0,1,1543.09,166.34Z"/><path class="cls-10" d="M1792.88,75.39a13.05,13.05,0,1,1,13-13A13.05,13.05,0,0,1,1792.88,75.39Z"/></g><g class="cls-2"><path class="cls-3" d="M370.93,123.91a10.14,10.14,0,1,0-10.13-10.14A10.14,10.14,0,0,0,370.93,123.91Z"/><path class="cls-4" d="M849.11,176.48A10.14,10.14,0,1,0,839,166.34,10.14,10.14,0,0,0,849.11,176.48Z"/><path class="cls-3" d="M607.88,240.55a10.74,10.74,0,1,0-10.73-10.73A10.73,10.73,0,0,0,607.88,240.55Z"/><path class="cls-11" d="M217.29,149.46A29.46,29.46,0,1,0,187.84,120,29.45,29.45,0,0,0,217.29,149.46Z"/><path class="cls-12" d="M119.38,259.27a29.45,29.45,0,1,0-29.45-29.45A29.45,29.45,0,0,0,119.38,259.27Z"/><path class="cls-13" d="M521.93,56.49a16.37,16.37,0,1,0-16.37-16.37A16.37,16.37,0,0,0,521.93,56.49Z"/><path class="cls-14" d="M521.1,192.43a13,13,0,1,0-13.05-13A13,13,0,0,0,521.1,192.43Z"/><path class="cls-15" d="M413.21,166.34a13,13,0,1,0-13-13.05A13.05,13.05,0,0,0,413.21,166.34Z"/><path class="cls-16" d="M163.43,75.39a13,13,0,1,0-13.05-13A13.06,13.06,0,0,0,163.43,75.39Z"/></g></svg>